<svg version="1.1" viewBox="0.0 0.0 288.0 288.0" fill="none" stroke="none" stroke-linecap="square" stroke-miterlimit="10" xmlns:xlink="http://www.w3.org/1999/xlink" xmlns="http://www.w3.org/2000/svg"><clipPath id="p.0"><path d="m0 0l288.0 0l0 288.0l-288.0 0l0 -288.0z" clip-rule="nonzero"/></clipPath><g clip-path="url(#p.0)"><path fill="#2af186" fill-opacity="0.0" d="m0 0l288.0 0l0 288.0l-288.0 0z" fill-rule="evenodd"/><path fill="#2af186" d="m0.51602703 132.12178l0 0c5.8149185 -70.19685 61.561718 -125.88202 131.76497 -131.61928z" fill-rule="evenodd"/><path fill="#2af186" d="m136.11298 64.06885l0 -44.913383l-44.97638 44.913383z" fill-rule="evenodd"/><path fill="#2af186" d="m79.70866 79.71653l56.409447 0l0 56.409447l-56.409447 0z" fill-rule="evenodd"/><path fill="#2af186" d="m63.92662 136.12659l0 -44.913383l-44.97638 44.913383z" fill-rule="evenodd"/><path fill="#2af186" d="m155.88748 0.5155664l0 0c70.19685 5.8149185 125.88202 61.561714 131.61926 131.76497z" fill-rule="evenodd"/><path fill="#2af186" d="m132.11436 287.5011l0 0c-70.19685 -5.814911 -125.88201 -61.561707 -131.61928 -131.76495z" fill-rule="evenodd"/><path fill="#2af186" d="m287.50156 155.88701l0 0c-5.814911 70.19685 -61.561707 125.882034 -131.76495 131.61928z" fill-rule="evenodd"/><path fill="#2af186" d="m223.95674 136.31694l44.913406 0l-44.913406 -44.97638z" fill-rule="evenodd"/><path fill="#2af186" d="m208.30907 79.91263l0 56.409454l-56.409454 0l0 -56.409454z" fill-rule="evenodd"/><path fill="#2af186" d="m151.899 64.130585l44.91339 0l-44.91339 -44.97638z" fill-rule="evenodd"/><path fill="#2af186" d="m63.86226 151.77876l-44.913383 0l44.913383 44.97638z" fill-rule="evenodd"/><path fill="#2af186" d="m79.50994 208.18307l0 -56.40944l56.409447 0l0 56.40944z" fill-rule="evenodd"/><path fill="#2af186" d="m135.92 223.96512l-44.913383 0l44.913383 44.97638z" fill-rule="evenodd"/><path fill="#2af186" d="m151.56955 224.16335l0 44.913376l44.97638 -44.913376z" fill-rule="evenodd"/><path fill="#2af186" d="m207.97386 208.51566l-56.409454 0l0 -56.409454l56.409454 0z" fill-rule="evenodd"/><path fill="#2af186" d="m223.7559 152.10559l0 44.91339l44.976364 -44.91339z" fill-rule="evenodd"/></g></svg>
